<svg width="209" height="208" viewBox="0 0 209 208" fill="none" xmlns="http://www.w3.org/2000/svg">
<path d="M162.64 11C168.39 19.51 176.67 34 181.04 42.51L162.64 50.33C157.81 40.9 150.68 27.33 144.47 18.36L162.64 11ZM190.01 0.649993C195.99 9.15999 204.5 23.88 208.41 31.93L190.24 39.75C185.41 30.09 178.05 16.75 171.84 8.00999L190.01 0.649993ZM103.76 13.07C103.07 18.36 102.38 28.02 102.15 33.54C99.62 125.08 78 171.54 27.17 207.88L0.260001 186.26C9.92 180.97 21.42 173.15 30.62 163.72C60.75 133.82 71.33 94.72 71.56 34.23C71.56 28.94 70.64 18.59 69.72 13.07H103.76ZM181.73 62.29C181.04 65.97 180.35 71.95 180.35 74.48C179.43 99.32 176.44 163.49 166.55 186.95C161.72 198.68 152.75 204.66 137.11 204.66C123.77 204.66 110.2 203.74 98.93 202.82L95.25 172C106.75 174.07 118.48 175.22 127.68 175.22C135.04 175.22 138.26 172.69 140.56 167.17C147.23 152.68 150.45 106.68 150.45 81.84H38.21C30.39 81.84 17.51 81.84 7.85 82.76V52.63C17.51 53.55 29.24 54.24 37.98 54.24H144.47C150.45 54.24 156.43 53.55 161.95 52.63L181.73 62.29Z" fill="white"/>
</svg>
