<svg width="174" height="174" viewBox="0 0 174 174" fill="none" xmlns="http://www.w3.org/2000/svg">
<g clip-path="url(#clip0_2_2)">
<rect width="174" height="174" rx="20" fill="black"/>
<path d="M114.8 40C117.3 43.7 120.9 50 122.8 53.7L114.8 57.1C112.7 53 109.6 47.1 106.9 43.2L114.8 40ZM126.7 35.5C129.3 39.2 133 45.6 134.7 49.1L126.8 52.5C124.7 48.3 121.5 42.5 118.8 38.7L126.7 35.5ZM89.2 40.9C88.9 43.2 88.6 47.4 88.5 49.8C87.4 89.6 78 109.8 55.9 125.6L44.2 116.2C48.4 113.9 53.4 110.5 57.4 106.4C70.5 93.4 75.1 76.4 75.2 50.1C75.2 47.8 74.8 43.3 74.4 40.9H89.2ZM123.1 62.3C122.8 63.9 122.5 66.5 122.5 67.6C122.1 78.4 120.8 106.3 116.5 116.5C114.4 121.6 110.5 124.2 103.7 124.2C97.9 124.2 92 123.8 87.1 123.4L85.5 110C90.5 110.9 95.6 111.4 99.6 111.4C102.8 111.4 104.2 110.3 105.2 107.9C108.1 101.6 109.5 81.6 109.5 70.8H60.7C57.3 70.8 51.7 70.8 47.5 71.2V58.1C51.7 58.5 56.8 58.8 60.6 58.8H106.9C109.5 58.8 112.1 58.5 114.5 58.1L123.1 62.3Z" fill="white"/>
</g>
<defs>
<clipPath id="clip0_2_2">
<rect width="174" height="174" rx="20" fill="white"/>
</clipPath>
</defs>
</svg>