<svg width="112" height="110" viewBox="0 0 128 128" fill="none" xmlns="http://www.w3.org/2000/svg">
<path opacity="0.986" fill-rule="evenodd" clip-rule="evenodd" d="M100.5 7.49999C70.368 38.132 40.0348 68.632 9.50002 99C7.80342 99.384 6.13682 99.218 4.50002 98.5C3.28572 96.192 3.28572 93.859 4.50002 91.5C34.2926 62.208 63.959 32.7076 93.5 2.99999C97.798 1.48809 100.131 2.98809 100.5 7.49999Z" fill="#FEFEFE"/>
<path opacity="0.02" fill-rule="evenodd" clip-rule="evenodd" d="M101.5 7.50001C101.167 7.50001 100.833 7.50001 100.5 7.50001C100.131 2.98811 97.798 1.48811 93.5 3.00001C63.959 32.7076 34.2926 62.208 4.49997 91.5C3.28567 93.859 3.28567 96.192 4.49997 98.5C3.83327 98.5 3.49997 98.833 3.49997 99.5C0.163673 97.473 -0.336327 94.807 1.99997 91.5C31.4193 62.413 60.586 32.9131 89.5 3.00001C95.086 -1.80939 99.419 -0.809394 102.5 6.00001C102.43 6.76481 102.097 7.26481 101.5 7.50001Z" fill="#D3D3D3"/>
<path opacity="0.988" fill-rule="evenodd" clip-rule="evenodd" d="M107.5 53.5C109.941 55.9627 110.107 58.629 108 61.5C92.042 76.291 76.542 91.625 61.5 107.5C60.583 108.127 59.583 108.461 58.5 108.5C54.5359 107.078 53.5359 104.411 55.5 100.5C71.293 85.208 86.959 69.708 102.5 54C104.134 53.5065 105.801 53.3398 107.5 53.5Z" fill="#FEFEFE"/>
<path opacity="0.087" fill-rule="evenodd" clip-rule="evenodd" d="M108.5 52.5C110.011 53.9575 111.011 55.7908 111.5 58C109.417 61.757 106.917 65.257 104 68.5C89.988 81.345 76.488 94.679 63.5 108.5C61.929 109.309 60.262 109.643 58.5 109.5C58.5 109.167 58.5 108.833 58.5 108.5C59.583 108.461 60.583 108.127 61.5 107.5C76.542 91.625 92.042 76.291 108 61.5C110.107 58.629 109.941 55.9627 107.5 53.5C107.5 52.8333 107.833 52.5 108.5 52.5Z" fill="#DEDEDE"/>
<path opacity="0.2" fill-rule="evenodd" clip-rule="evenodd" d="M100.5 7.5C100.833 7.5 101.167 7.5 101.5 7.5C101.649 8.552 101.483 9.552 101 10.5C70.598 41.4035 39.7642 71.737 8.5 101.5C6.6639 100.972 4.9972 100.306 3.5 99.5C3.5 98.833 3.8333 98.5 4.5 98.5C6.1368 99.218 7.8034 99.384 9.5 99C40.0348 68.632 70.368 38.132 100.5 7.5Z" fill="#E1E1E1"/>
<path opacity="0.122" fill-rule="evenodd" clip-rule="evenodd" d="M108.5 52.5C107.833 52.5 107.5 52.8333 107.5 53.5C105.801 53.3398 104.134 53.5065 102.5 54C86.959 69.708 71.293 85.208 55.5 100.5C53.5359 104.411 54.5359 107.078 58.5 108.5C58.5 108.833 58.5 109.167 58.5 109.5C56.5946 110.03 54.7613 109.363 53 107.5C52.245 104.697 52.5783 102.03 54 99.5C69.806 83.694 85.64 67.86 101.5 52C104.039 51.2042 106.372 51.3709 108.5 52.5Z" fill="#D8D8D8"/>
</svg>
