<svg version="1.1" id="Layer_1" xmlns="http://www.w3.org/2000/svg" xmlns:xlink="http://www.w3.org/1999/xlink" x="0px" y="0px"
	 width="100%" viewBox="0 0 1039 1024" enable-background="new 0 0 1039 1024" xml:space="preserve">
<path fill="#000000" opacity="1.000000" stroke="none" 
	d="
M1.000000,344.000000 
	C1.000000,229.333328 1.000000,115.166664 1.000000,1.000000 
	C347.333344,1.000000 693.666687,1.000000 1040.000000,1.000000 
	C1040.000000,342.333344 1040.000000,683.666687 1040.000000,1025.000000 
	C693.666687,1025.000000 347.333344,1025.000000 1.000000,1025.000000 
	C1.000000,798.166687 1.000000,571.333313 1.000000,344.000000 
M401.263031,71.219376 
	C400.196777,71.488762 399.131409,71.761543 398.064148,72.026970 
	C392.116730,73.506065 388.104736,78.357300 387.995636,84.835732 
	C387.718689,89.221413 387.441742,93.607094 387.012512,98.859657 
	C386.008270,112.273529 384.872589,125.679298 384.045044,139.104065 
	C383.475555,148.343613 383.382599,157.611755 382.956055,166.861557 
	C382.876465,168.588104 382.225098,170.288300 381.037354,171.998947 
	C379.704041,171.964294 378.370697,171.929642 376.606812,171.198105 
	C363.384338,168.956909 350.156952,166.744186 336.941010,164.465210 
	C326.952667,162.742798 316.978912,160.935654 306.165039,159.021729 
	C278.442688,154.070007 250.720352,149.118286 222.169907,144.021057 
	C215.821091,142.874359 209.473801,141.719238 203.123169,140.582642 
	C188.969910,138.049591 174.809875,135.553986 160.662659,132.987778 
	C152.098022,131.434189 143.552170,129.777039 134.149017,128.022186 
	C128.227478,127.015015 122.294777,126.068787 116.386688,124.988045 
	C103.950912,122.713188 91.561310,120.165489 79.089432,118.114845 
	C68.967216,116.450546 58.779663,115.074646 48.572231,114.064522 
	C35.155201,112.736755 23.809053,126.806999 23.903976,138.469421 
	C23.959740,145.320816 26.488432,150.987152 29.888258,156.674118 
	C37.085690,168.713425 43.950527,180.951553 51.003014,193.834122 
	C61.632076,212.238525 72.261139,230.642944 82.993195,249.775223 
	C93.311852,267.891785 103.630501,286.008362 114.238876,304.766968 
	C122.124382,318.527588 130.009888,332.288177 138.183060,346.702942 
	C143.153534,355.242889 148.124008,363.782867 153.051987,373.103699 
	C154.039581,374.769745 155.039688,376.428497 156.012741,378.102936 
	C162.973312,390.081024 169.928391,402.062256 176.994263,414.770233 
	C181.702484,423.053619 186.358337,431.367371 191.138382,439.609100 
	C194.045944,444.622314 197.145157,449.524384 200.072525,455.242401 
	C206.104309,465.826202 212.136108,476.409973 218.221191,487.690338 
	C220.474579,491.420074 222.733887,495.146301 224.980057,498.880371 
	C228.621048,504.933258 232.253372,510.991302 235.995285,517.780579 
	C243.313919,530.556030 250.632553,543.331421 258.006226,556.830505 
	C264.784698,568.786499 271.563202,580.742432 278.772797,593.245544 
	C285.386078,604.788940 291.999359,616.332275 298.934326,628.458984 
	C304.583069,638.319031 310.231812,648.179077 315.994843,658.761475 
	C316.905426,660.280396 317.842163,661.784302 318.722473,663.320618 
	C326.117096,676.225891 333.501404,689.137085 341.182465,702.699402 
	C351.512451,720.797974 361.842468,738.896484 372.233704,757.697205 
	C374.829315,762.173035 377.433350,766.644104 380.019073,771.125610 
	C388.672607,786.124023 397.319519,801.126282 406.248505,816.769897 
	C408.183960,820.301147 410.054047,823.870117 412.067566,827.356262 
	C417.400665,836.590027 422.795868,845.787964 428.227692,855.705505 
	C432.882996,863.986328 437.450134,872.318420 442.225372,880.529541 
	C445.286163,885.792664 448.653839,890.877380 451.996399,896.772522 
	C459.631226,910.195312 467.266083,923.618103 475.183289,937.698792 
	C484.169739,953.622253 493.034546,969.615967 502.183197,985.445679 
	C508.848602,996.978577 521.945374,1001.904419 533.751953,998.022217 
	C542.204163,995.243042 546.803894,988.699402 550.850098,981.484253 
	C567.812622,951.236816 584.834412,921.022461 601.710693,890.726990 
	C615.909302,865.238342 629.936829,839.654480 644.692627,813.773193 
	C646.803650,809.793213 648.859436,805.782776 651.035889,801.838928 
	C657.765625,789.644226 664.529358,777.468384 671.302124,765.297607 
	C679.873657,749.894409 688.467102,734.503479 697.694336,718.784851 
	C704.917725,705.589355 712.038330,692.336304 719.388000,679.211609 
	C731.166199,658.178772 743.127625,637.248718 754.950500,616.240784 
	C762.311035,603.162048 769.559021,590.020020 777.191895,576.283508 
	C781.536011,568.327271 785.818909,560.336792 790.236572,552.421570 
	C800.808411,533.479919 811.409485,514.554260 822.065308,495.659760 
	C829.228271,482.958679 836.601440,470.375488 843.695007,457.636230 
	C848.018250,449.872040 851.989380,441.911774 856.759644,433.758392 
	C860.191406,427.737793 863.674377,421.745697 867.045715,415.691498 
	C879.397522,393.509735 891.712219,371.307281 904.684143,348.781738 
	C904.841431,348.312836 904.928589,347.804688 905.166016,347.380585 
	C914.965454,329.874329 924.820801,312.399170 934.572083,294.866150 
	C939.515442,285.977844 944.273865,276.986694 949.742493,267.727753 
	C957.686951,253.449112 965.590576,239.147522 973.590210,224.899857 
	C978.899597,215.443848 984.455261,206.125122 989.697571,196.632782 
	C993.993286,188.854263 997.989197,180.910156 1002.759888,172.757156 
	C1006.912720,165.276688 1011.812378,158.104218 1015.052734,150.247421 
	C1020.653259,136.667923 1016.012573,123.092239 1002.276489,115.800873 
	C996.626892,115.211052 990.777832,113.382072 985.363586,114.253952 
	C965.829895,117.399521 946.442627,121.454567 926.178650,125.022102 
	C920.927124,126.014885 915.676453,127.012131 910.423889,127.999573 
	C896.379700,130.639801 882.344299,133.328064 868.286865,135.895950 
	C858.206787,137.737259 848.096863,139.415329 837.192871,141.039764 
	C833.077820,141.886734 828.972046,142.782288 824.845947,143.571396 
	C813.524597,145.736557 802.200623,147.889099 790.866577,149.986511 
	C778.413086,152.291077 765.956360,154.580872 753.483948,156.780243 
	C741.666260,158.864182 729.826538,160.822662 717.996521,162.047119 
	C722.322693,147.363342 726.720276,132.700150 730.958862,117.991142 
	C737.965637,93.676186 744.869873,69.331688 751.977234,44.208408 
	C753.262512,39.804951 754.547791,35.401497 755.979919,30.213299 
	C756.597046,27.472639 757.214111,24.731979 758.202637,21.257006 
	C761.867493,9.610717 751.121826,2.694962 743.588562,4.163016 
	C730.408691,6.731449 717.250122,9.409361 704.072388,11.988985 
	C688.195740,15.096934 672.300049,18.108562 656.427612,21.237768 
	C636.747925,25.117548 617.090881,29.111855 597.410400,32.987579 
	C581.372131,36.146034 565.305176,39.158451 549.266663,42.315628 
	C527.990356,46.503876 506.729553,50.770748 485.461761,55.002308 
	C470.862488,57.907074 456.273254,60.863823 441.659943,63.696419 
	C428.463165,66.254456 415.239838,68.675446 401.263031,71.219376 
z"/>
<path fill="#FFD830" opacity="1.000000" stroke="none" 
	d="
M751.817261,44.999634 
	C744.869873,69.331688 737.965637,93.676186 730.958862,117.991142 
	C726.720276,132.700150 722.322693,147.363342 717.671265,162.624207 
	C715.059814,170.515854 712.773499,177.830414 710.011841,185.111694 
	C706.239868,185.384048 702.923584,185.551636 699.649902,186.017990 
	C680.117920,188.800400 660.591370,191.621323 641.071655,194.488617 
	C622.042603,197.283829 603.028992,200.184235 583.999390,202.975677 
	C564.315491,205.863098 544.620239,208.672516 524.930603,211.520752 
	C507.701691,214.013031 490.473236,216.507980 473.245575,219.008759 
	C453.884644,221.819199 434.534821,224.708862 415.160797,227.425766 
	C403.348083,229.082336 391.498840,230.478195 379.568787,231.591522 
	C379.591553,223.461487 379.711517,215.731125 379.916290,207.586166 
	C380.869141,195.869659 381.746033,184.568359 382.569000,173.263153 
	C382.598206,172.862198 382.093475,172.422379 381.837616,172.000671 
	C382.225098,170.288300 382.876465,168.588104 382.956055,166.861557 
	C383.382599,157.611755 383.475555,148.343613 384.045044,139.104065 
	C384.872589,125.679298 386.008270,112.273529 387.473480,98.351868 
	C400.553375,95.899620 413.166260,93.915115 425.792572,92.019928 
	C445.475464,89.065575 465.163055,86.141861 484.856812,83.260971 
	C503.896606,80.475761 522.947205,77.763931 541.992249,75.014694 
	C561.691772,72.170982 581.390686,69.322235 601.089478,66.473518 
	C618.326477,63.980816 635.564026,61.492031 652.799500,58.988796 
	C672.169006,56.175621 691.529053,53.296024 710.907288,50.544716 
	C724.531738,48.610336 738.179749,46.842083 751.817261,44.999634 
z"/>
<path fill="#B143FE" opacity="1.000000" stroke="none" 
	d="
M776.857544,576.906372 
	C769.559021,590.020020 762.311035,603.162048 754.950500,616.240784 
	C743.127625,637.248718 731.166199,658.178772 719.388000,679.211609 
	C712.038330,692.336304 704.917725,705.589355 697.149353,718.727173 
	C695.140381,719.216003 693.456787,719.463196 692.244568,720.352783 
	C661.053040,743.241516 629.904236,766.188477 598.761414,789.143433 
	C556.123047,820.571716 513.522217,852.051025 470.833771,883.411255 
	C464.722351,887.900818 458.210449,891.845276 451.883911,896.042053 
	C448.653839,890.877380 445.286163,885.792664 442.225372,880.529541 
	C437.450134,872.318420 432.882996,863.986328 428.585327,855.352417 
	C431.219757,854.170166 433.843506,853.814514 435.720215,852.439331 
	C456.864868,836.945435 477.832581,821.209839 498.998749,805.745789 
	C504.411530,801.791138 510.354767,798.562561 516.083435,795.406799 
	C514.558899,802.889038 513.058777,809.977356 511.436798,817.037598 
	C509.730530,824.464783 512.419739,830.707397 518.647400,833.465515 
	C524.903748,836.236328 530.883118,834.171265 535.193787,827.536804 
	C537.541748,823.923096 539.834839,820.242249 541.777283,816.401733 
	C551.590942,796.998657 561.273254,777.529297 571.017090,758.090881 
	C579.717224,740.734619 588.437317,723.388428 597.510620,706.013794 
	C600.598572,704.478210 603.522705,703.237488 606.017944,701.410889 
	C621.955933,689.743774 637.775757,677.915527 653.678955,666.200806 
	C688.559082,640.507141 723.436035,614.809082 758.390015,589.216125 
	C764.353271,584.849915 770.692139,580.996643 776.857544,576.906372 
z"/>
<path fill="#A850FD" opacity="1.000000" stroke="none" 
	d="
M777.024719,576.594971 
	C770.692139,580.996643 764.353271,584.849915 758.390015,589.216125 
	C723.436035,614.809082 688.559082,640.507141 653.678955,666.200806 
	C637.775757,677.915527 621.955933,689.743774 606.017944,701.410889 
	C603.522705,703.237488 600.598572,704.478210 597.568726,705.653931 
	C602.799133,694.211121 608.333557,683.104187 614.097351,671.726257 
	C623.874573,652.283508 633.363464,633.082031 642.989685,613.949768 
	C650.081421,599.854736 657.352539,585.849976 664.953857,571.845825 
	C667.619873,571.013611 670.180725,570.565186 672.082886,569.199402 
	C685.697266,559.424072 699.201477,549.494507 712.696106,539.553406 
	C758.388977,505.892792 804.061951,472.205200 849.748901,438.536530 
	C851.840759,436.994934 853.994080,435.536713 856.118774,434.039612 
	C851.989380,441.911774 848.018250,449.872040 843.695007,457.636230 
	C836.601440,470.375488 829.228271,482.958679 822.065308,495.659760 
	C811.409485,514.554260 800.808411,533.479919 790.236572,552.421570 
	C785.818909,560.336792 781.536011,568.327271 777.024719,576.594971 
z"/>
<path fill="#9C5EFE" opacity="1.000000" stroke="none" 
	d="
M372.172485,756.995056 
	C361.842468,738.896484 351.512451,720.797974 341.336609,702.210083 
	C343.028534,700.460388 344.511993,699.126038 346.112610,697.951416 
	C359.081268,688.434082 372.089752,678.971008 385.052002,669.445007 
	C409.772430,651.277771 434.509766,633.132935 459.143738,614.849060 
	C463.985901,611.255127 468.393127,607.075195 473.389221,603.127563 
	C479.313660,605.330078 484.053040,602.037842 488.940643,600.627380 
	C505.350800,595.891724 521.629395,590.702637 537.994995,585.809631 
	C548.902039,582.548767 558.694031,589.623962 556.791992,599.388977 
	C554.863037,609.292419 552.632080,619.136963 550.134644,629.013916 
	C547.944702,629.813599 545.945007,630.319397 544.394653,631.444397 
	C529.203857,642.467712 514.065857,653.564209 498.955017,664.697144 
	C459.776062,693.562439 420.630493,722.473145 381.428009,751.306335 
	C378.520813,753.444641 375.265808,755.109924 372.172485,756.995056 
z"/>
<path fill="#62A7FF" opacity="1.000000" stroke="none" 
	d="
M306.998688,159.166229 
	C316.978912,160.935654 326.952667,162.742798 336.941010,164.465210 
	C350.156952,166.744186 363.384338,168.956909 376.653748,171.844604 
	C349.537109,192.494019 322.352478,212.468460 295.214539,232.506104 
	C247.477509,267.753448 199.802078,303.084351 151.992264,338.232574 
	C147.698547,341.389191 142.613129,343.468933 137.895386,346.048798 
	C130.009888,332.288177 122.124382,318.527588 114.378525,304.256561 
	C115.410080,302.998779 116.263458,302.198914 117.199455,301.511536 
	C151.576859,276.265747 185.985626,251.062637 220.338501,225.783539 
	C248.275269,205.225830 276.164520,184.603302 303.992828,163.899246 
	C305.393341,162.857269 306.014587,160.767914 306.998688,159.166229 
z"/>
<path fill="#5BB0FF" opacity="1.000000" stroke="none" 
	d="
M306.581848,159.093979 
	C306.014587,160.767914 305.393341,162.857269 303.992828,163.899246 
	C276.164520,184.603302 248.275269,205.225830 220.338501,225.783539 
	C185.985626,251.062637 151.576859,276.265747 117.199455,301.511536 
	C116.263458,302.198914 115.410080,302.998779 114.233665,303.935547 
	C103.630501,286.008362 93.311852,267.891785 83.257889,249.264526 
	C84.250870,248.353149 85.035713,248.029297 85.699394,247.540833 
	C128.867966,215.769119 172.048218,184.013123 215.139420,152.136719 
	C218.102692,149.944672 220.394135,146.844437 222.998001,144.166565 
	C250.720352,149.118286 278.442688,154.070007 306.581848,159.093979 
z"/>
<path fill="#6C9AFF" opacity="1.000000" stroke="none" 
	d="
M379.831482,208.000763 
	C379.711517,215.731125 379.591553,223.461487 379.410034,232.014648 
	C378.900024,238.379425 378.368896,243.916275 378.023285,249.464691 
	C377.555725,256.971802 377.230591,264.487762 376.501923,272.062683 
	C374.001099,273.344299 371.690186,274.355743 369.707733,275.813782 
	C347.613190,292.063782 325.597565,308.421051 303.505829,324.674866 
	C263.740387,353.932007 223.960739,383.170044 184.076523,412.264587 
	C182.229797,413.611725 179.306900,413.483551 176.885223,414.042480 
	C169.928391,402.062256 162.973312,390.081024 156.012741,378.102936 
	C155.039688,376.428497 154.039581,374.769745 153.481812,372.626160 
	C155.654709,371.223328 157.546295,370.499878 159.118744,369.342804 
	C186.273087,349.361023 213.370544,329.301971 240.515991,309.308105 
	C280.632172,279.760651 320.752502,250.218689 360.934113,220.760468 
	C367.059296,216.269943 373.523895,212.242416 379.831482,208.000763 
z"/>
<path fill="#A553FE" opacity="1.000000" stroke="none" 
	d="
M372.203125,757.346130 
	C375.265808,755.109924 378.520813,753.444641 381.428009,751.306335 
	C420.630493,722.473145 459.776062,693.562439 498.955017,664.697144 
	C514.065857,653.564209 529.203857,642.467712 544.394653,631.444397 
	C545.945007,630.319397 547.944702,629.813599 550.100342,629.436523 
	C547.030212,646.903198 543.595581,663.953735 540.028748,681.378906 
	C536.840759,696.168945 533.785095,710.584351 530.358582,725.003296 
	C528.291565,725.584351 526.338867,725.802002 524.940918,726.798096 
	C516.029358,733.147766 507.224915,739.648438 498.413239,746.137390 
	C468.642426,768.060547 438.871582,789.983765 409.157745,811.983887 
	C407.810760,812.981262 407.019226,814.728882 405.968994,816.127014 
	C397.319519,801.126282 388.672607,786.124023 380.019073,771.125610 
	C377.433350,766.644104 374.829315,762.173035 372.203125,757.346130 
z"/>
<path fill="#9764FE" opacity="1.000000" stroke="none" 
	d="
M1002.118042,173.039459 
	C997.989197,180.910156 993.993286,188.854263 989.697571,196.632782 
	C984.455261,206.125122 978.899597,215.443848 973.590210,224.899857 
	C965.590576,239.147522 957.686951,253.449112 949.067505,267.925598 
	C946.212341,269.293091 943.853516,270.219452 941.878967,271.669250 
	C916.027466,290.651001 890.237061,309.715942 864.417969,328.741791 
	C828.031006,355.554932 791.659790,382.389587 755.202148,409.106293 
	C751.117737,412.099396 746.516113,414.386658 742.197021,416.656158 
	C744.237610,412.306000 746.232605,408.299469 748.233887,404.296051 
	C761.279175,378.199524 774.325867,352.103729 787.738525,326.001953 
	C790.530823,325.011475 793.274353,324.465027 795.332581,322.973114 
	C812.936584,310.212921 830.439270,297.312347 847.929016,284.395203 
	C895.591980,249.193695 943.208984,213.929840 990.937134,178.817032 
	C994.274597,176.361740 998.373352,174.941177 1002.118042,173.039459 
z"/>
<path fill="#B83AFE" opacity="1.000000" stroke="none" 
	d="
M451.940155,896.407288 
	C458.210449,891.845276 464.722351,887.900818 470.833771,883.411255 
	C513.522217,852.051025 556.123047,820.571716 598.761414,789.143433 
	C629.904236,766.188477 661.053040,743.241516 692.244568,720.352783 
	C693.456787,719.463196 695.140381,719.216003 696.827759,718.888306 
	C688.467102,734.503479 679.873657,749.894409 671.302124,765.297607 
	C664.529358,777.468384 657.765625,789.644226 651.035889,801.838928 
	C648.859436,805.782776 646.803650,809.793213 644.151367,813.725586 
	C642.023621,814.374878 640.243408,814.808044 638.880127,815.809021 
	C623.874939,826.826294 608.942932,837.943176 593.975342,849.011658 
	C554.288025,878.360352 514.592896,907.698486 474.900940,937.040894 
	C467.266083,923.618103 459.631226,910.195312 451.940155,896.407288 
z"/>
<path fill="#916CFE" opacity="1.000000" stroke="none" 
	d="
M1002.438965,172.898300 
	C998.373352,174.941177 994.274597,176.361740 990.937134,178.817032 
	C943.208984,213.929840 895.591980,249.193695 847.929016,284.395203 
	C830.439270,297.312347 812.936584,310.212921 795.332581,322.973114 
	C793.274353,324.465027 790.530823,325.011475 787.771729,325.657410 
	C793.320679,313.599762 799.202942,301.880920 805.360779,289.944489 
	C810.337891,280.369202 815.315918,271.135406 819.594238,261.588043 
	C821.133850,258.152374 820.990234,253.962433 821.989746,250.051849 
	C824.401428,248.893402 826.602234,248.024094 828.449768,246.672073 
	C851.479858,229.818268 874.471252,212.911499 897.447632,195.984512 
	C931.643188,170.792099 965.829407,145.587051 999.962585,120.310318 
	C1001.275269,119.338249 1001.994141,117.564285 1002.989746,116.163979 
	C1016.012573,123.092239 1020.653259,136.667923 1015.052734,150.247421 
	C1011.812378,158.104218 1006.912720,165.276688 1002.438965,172.898300 
z"/>
<path fill="#A058FE" opacity="1.000000" stroke="none" 
	d="
M856.439209,433.899017 
	C853.994080,435.536713 851.840759,436.994934 849.748901,438.536530 
	C804.061951,472.205200 758.388977,505.892792 712.696106,539.553406 
	C699.201477,549.494507 685.697266,559.424072 672.082886,569.199402 
	C670.180725,570.565186 667.619873,571.013611 664.964417,571.461792 
	C667.780212,564.502136 670.995544,557.967346 674.481079,551.202515 
	C675.941284,548.591553 677.119568,546.204712 678.323303,543.830688 
	C687.485962,525.759583 696.653625,507.690918 706.021667,489.870850 
	C707.944702,489.426849 709.898193,489.051697 711.350464,487.990479 
	C724.898438,478.090759 738.340881,468.046936 751.850952,458.095032 
	C785.560059,433.263947 819.282410,408.450745 853.012146,383.647614 
	C868.137573,372.525055 883.257446,361.393921 898.494507,350.425903 
	C899.919800,349.399902 902.172424,349.523041 904.040894,349.112610 
	C891.712219,371.307281 879.397522,393.509735 867.045715,415.691498 
	C863.674377,421.745697 860.191406,427.737793 856.439209,433.899017 
z"/>
<path fill="#BD34FE" opacity="1.000000" stroke="none" 
	d="
M475.042114,937.369873 
	C514.592896,907.698486 554.288025,878.360352 593.975342,849.011658 
	C608.942932,837.943176 623.874939,826.826294 638.880127,815.809021 
	C640.243408,814.808044 642.023621,814.374878 643.825073,813.895386 
	C629.936829,839.654480 615.909302,865.238342 601.710693,890.726990 
	C584.834412,921.022461 567.812622,951.236816 550.850098,981.484253 
	C546.803894,988.699402 542.204163,995.243042 533.751953,998.022217 
	C521.945374,1001.904419 508.848602,996.978577 502.183197,985.445679 
	C493.034546,969.615967 484.169739,953.622253 475.042114,937.369873 
z"/>
<path fill="#7293FF" opacity="1.000000" stroke="none" 
	d="
M176.939743,414.406372 
	C179.306900,413.483551 182.229797,413.611725 184.076523,412.264587 
	C223.960739,383.170044 263.740387,353.932007 303.505829,324.674866 
	C325.597565,308.421051 347.613190,292.063782 369.707733,275.813782 
	C371.690186,274.355743 374.001099,273.344299 376.561157,272.510712 
	C375.787323,291.637604 374.611816,310.379272 373.046112,329.102966 
	C371.199677,329.762238 369.593719,330.231049 368.312378,331.151642 
	C361.575714,335.991455 354.920044,340.944000 348.238281,345.860107 
	C314.430817,370.733704 280.640198,395.630219 246.809692,420.472412 
	C231.299438,431.861816 215.711166,443.144989 200.158279,454.476318 
	C197.145157,449.524384 194.045944,444.622314 191.138382,439.609100 
	C186.358337,431.367371 181.702484,423.053619 176.939743,414.406372 
z"/>
<path fill="#8B73FE" opacity="1.000000" stroke="none" 
	d="
M298.612671,627.875671 
	C291.999359,616.332275 285.386078,604.788940 278.846069,592.681091 
	C280.053680,591.432983 281.251312,590.835144 282.313141,590.052979 
	C307.870300,571.226318 333.406891,552.371643 358.960052,533.539490 
	C382.238892,516.383423 405.545563,499.265167 428.816345,482.098236 
	C449.143311,467.103088 469.437378,452.063385 490.067078,437.211487 
	C493.854431,441.084351 494.649811,445.370331 493.428802,450.232544 
	C492.790588,452.773865 492.531525,455.410400 491.923035,458.349792 
	C489.490570,469.130798 487.236328,479.566010 484.633179,490.055664 
	C483.231567,490.593048 482.056763,490.910370 481.143829,491.583069 
	C455.357697,510.582855 429.616058,529.643066 403.829224,548.641907 
	C374.167358,570.495667 344.423309,592.238220 314.827240,614.180481 
	C309.155457,618.385498 304.004120,623.292542 298.612671,627.875671 
z"/>
<path fill="#9C5EFE" opacity="1.000000" stroke="none" 
	d="
M904.362549,348.947174 
	C902.172424,349.523041 899.919800,349.399902 898.494507,350.425903 
	C883.257446,361.393921 868.137573,372.525055 853.012146,383.647614 
	C819.282410,408.450745 785.560059,433.263947 751.850952,458.095032 
	C738.340881,468.046936 724.898438,478.090759 711.350464,487.990479 
	C709.898193,489.051697 707.944702,489.426849 706.079956,489.531464 
	C706.800964,487.156769 707.652161,485.364136 708.532593,483.585938 
	C718.365051,463.727570 728.201904,443.871368 738.298340,423.801117 
	C739.757446,421.392181 740.955872,419.196716 742.154297,417.001251 
	C746.516113,414.386658 751.117737,412.099396 755.202148,409.106293 
	C791.659790,382.389587 828.031006,355.554932 864.417969,328.741791 
	C890.237061,309.715942 916.027466,290.651001 941.878967,271.669250 
	C943.853516,270.219452 946.212341,269.293091 948.754272,268.082733 
	C944.273865,276.986694 939.515442,285.977844 934.572083,294.866150 
	C924.820801,312.399170 914.965454,329.874329 905.166016,347.380585 
	C904.928589,347.804688 904.841431,348.312836 904.362549,348.947174 
z"/>
<path fill="#867AFE" opacity="1.000000" stroke="none" 
	d="
M489.745972,437.043396 
	C469.437378,452.063385 449.143311,467.103088 428.816345,482.098236 
	C405.545563,499.265167 382.238892,516.383423 358.960052,533.539490 
	C333.406891,552.371643 307.870300,571.226318 282.313141,590.052979 
	C281.251312,590.835144 280.053680,591.432983 278.630493,592.407532 
	C271.563202,580.742432 264.784698,568.786499 258.141541,556.169434 
	C260.542023,553.324524 262.593842,550.851318 265.104279,549.000061 
	C305.583130,519.150146 346.135101,489.399384 386.588226,459.514771 
	C388.144623,458.364929 388.877594,456.100464 390.318542,454.217285 
	C395.972015,452.844391 401.301117,451.609070 406.630463,450.374756 
	C429.889557,444.987732 453.144012,439.580444 476.411713,434.230927 
	C481.242249,433.120331 485.987640,432.858337 489.745972,437.043396 
z"/>
<path fill="#53BBFF" opacity="1.000000" stroke="none" 
	d="
M222.583954,144.093811 
	C220.394135,146.844437 218.102692,149.944672 215.139420,152.136719 
	C172.048218,184.013123 128.867966,215.769119 85.699394,247.540833 
	C85.035713,248.029297 84.250870,248.353149 83.206390,248.900604 
	C72.261139,230.642944 61.632076,212.238525 51.148052,193.174240 
	C76.890709,173.532455 102.520538,154.593597 128.037994,135.504532 
	C130.698761,133.514069 132.693909,130.633820 134.997879,128.166412 
	C143.552170,129.777039 152.098022,131.434189 160.662659,132.987778 
	C174.809875,135.553986 188.969910,138.049591 203.123169,140.582642 
	C209.473801,141.719238 215.821091,142.874359 222.583954,144.093811 
z"/>
<path fill="#68A0FF" opacity="1.000000" stroke="none" 
	d="
M379.916321,207.586182 
	C373.523895,212.242416 367.059296,216.269943 360.934113,220.760468 
	C320.752502,250.218689 280.632172,279.760651 240.515991,309.308105 
	C213.370544,329.301971 186.273087,349.361023 159.118744,369.342804 
	C157.546295,370.499878 155.654709,371.223328 153.503067,372.235718 
	C148.124008,363.782867 143.153534,355.242889 138.039215,346.375854 
	C142.613129,343.468933 147.698547,341.389191 151.992264,338.232574 
	C199.802078,303.084351 247.477509,267.753448 295.214539,232.506104 
	C322.352478,212.468460 349.537109,192.494019 376.869019,172.193054 
	C378.370697,171.929642 379.704041,171.964294 381.437500,171.999817 
	C382.093475,172.422379 382.598206,172.862198 382.569000,173.263153 
	C381.746033,184.568359 380.869141,195.869659 379.916321,207.586182 
z"/>
<path fill="#9567FE" opacity="1.000000" stroke="none" 
	d="
M473.000977,603.165588 
	C468.393127,607.075195 463.985901,611.255127 459.143738,614.849060 
	C434.509766,633.132935 409.772430,651.277771 385.052002,669.445007 
	C372.089752,678.971008 359.081268,688.434082 346.112610,697.951416 
	C344.511993,699.126038 343.028534,700.460388 341.189789,701.883606 
	C333.501404,689.137085 326.117096,676.225891 318.722473,663.320618 
	C317.842163,661.784302 316.905426,660.280396 316.316803,658.379272 
	C321.226837,655.122375 326.018127,652.524475 330.371490,649.329773 
	C373.162445,617.928284 415.848602,586.383911 458.664825,555.017029 
	C463.367279,551.572083 468.697601,548.984131 473.739563,546.389221 
	C471.584717,557.521973 469.427032,568.264160 467.142792,579.406006 
	C466.653259,581.576538 466.426788,583.388855 465.904114,585.111328 
	C463.501282,593.029907 465.287598,599.248962 473.000977,603.165588 
z"/>
<path fill="#8B73FE" opacity="1.000000" stroke="none" 
	d="
M1002.633118,115.982437 
	C1001.994141,117.564285 1001.275269,119.338249 999.962585,120.310318 
	C965.829407,145.587051 931.643188,170.792099 897.447632,195.984512 
	C874.471252,212.911499 851.479858,229.818268 828.449768,246.672073 
	C826.602234,248.024094 824.401428,248.893402 821.779297,249.800049 
	C817.453674,242.607620 813.523865,240.508514 805.820190,241.901718 
	C791.944275,244.411194 778.100342,247.097809 764.222778,249.325668 
	C765.322815,247.383102 766.152100,245.444031 767.611206,244.329971 
	C776.456238,237.576691 785.420959,230.978958 794.389771,224.389267 
	C835.219604,194.390442 876.086426,164.441956 916.864746,134.373459 
	C920.519287,131.678726 923.634460,128.252609 927.000061,125.166153 
	C946.442627,121.454567 965.829895,117.399521 985.363586,114.253952 
	C990.777832,113.382072 996.626892,115.211052 1002.633118,115.982437 
z"/>
<path fill="#8878FE" opacity="1.000000" stroke="none" 
	d="
M926.589355,125.094131 
	C923.634460,128.252609 920.519287,131.678726 916.864746,134.373459 
	C876.086426,164.441956 835.219604,194.390442 794.389771,224.389267 
	C785.420959,230.978958 776.456238,237.576691 767.611206,244.329971 
	C766.152100,245.444031 765.322815,247.383102 763.874878,249.450378 
	C745.333069,253.480881 727.122314,257.019714 708.903198,260.514801 
	C700.839539,262.061737 695.273132,258.283783 693.587891,249.932587 
	C696.057983,248.604950 698.321045,247.516251 700.312317,246.056824 
	C717.569641,233.408798 734.787170,220.706268 751.999207,207.996582 
	C779.618408,187.602020 807.250305,167.224335 834.768555,146.694382 
	C836.343811,145.519196 836.945435,143.039032 838.000244,141.166229 
	C848.096863,139.415329 858.206787,137.737259 868.286865,135.895950 
	C882.344299,133.328064 896.379700,130.639801 910.423889,127.999573 
	C915.676453,127.012131 920.927124,126.014885 926.589355,125.094131 
z"/>
<path fill="#906DFE" opacity="1.000000" stroke="none" 
	d="
M473.736694,545.998657 
	C468.697601,548.984131 463.367279,551.572083 458.664825,555.017029 
	C415.848602,586.383911 373.162445,617.928284 330.371490,649.329773 
	C326.018127,652.524475 321.226837,655.122375 316.259644,658.018127 
	C310.231812,648.179077 304.583069,638.319031 298.773499,628.167358 
	C304.004120,623.292542 309.155457,618.385498 314.827240,614.180481 
	C344.423309,592.238220 374.167358,570.495667 403.829224,548.641907 
	C429.616058,529.643066 455.357697,510.582855 481.143829,491.583069 
	C482.056763,490.910370 483.231567,490.593048 484.654419,490.466919 
	C484.769928,491.412140 484.399445,491.977570 484.277557,492.592316 
	C480.748718,510.391418 477.244720,528.195435 473.736694,545.998657 
z"/>
<path fill="#778CFF" opacity="1.000000" stroke="none" 
	d="
M200.115402,454.859375 
	C215.711166,443.144989 231.299438,431.861816 246.809692,420.472412 
	C280.640198,395.630219 314.430817,370.733704 348.238281,345.860107 
	C354.920044,340.944000 361.575714,335.991455 368.312378,331.151642 
	C369.593719,330.231049 371.199677,329.762238 373.112488,329.556824 
	C373.227753,337.017792 372.886444,344.006897 372.410736,351.425354 
	C371.724426,360.569214 371.172516,369.283783 370.272919,378.017365 
	C366.688049,379.981964 363.273560,381.685760 360.240540,383.909698 
	C320.377625,413.139343 280.600159,442.485565 240.717224,471.687805 
	C233.392181,477.051178 225.693909,481.904846 218.167908,486.993774 
	C212.136108,476.409973 206.104309,465.826202 200.115402,454.859375 
z"/>
<path fill="#8081FE" opacity="1.000000" stroke="none" 
	d="
M389.994263,454.355377 
	C388.877594,456.100464 388.144623,458.364929 386.588226,459.514771 
	C346.135101,489.399384 305.583130,519.150146 265.104279,549.000061 
	C262.593842,550.851318 260.542023,553.324524 258.114014,555.807617 
	C250.632553,543.331421 243.313919,530.556030 236.245453,517.250732 
	C278.570038,485.730774 320.638947,454.733215 362.740601,423.780243 
	C364.304016,422.630859 366.187073,421.916290 367.987549,421.456482 
	C367.690643,429.045502 367.103241,436.174561 367.020844,443.309479 
	C366.918610,452.167877 374.721161,458.035645 383.239380,455.867950 
	C385.474548,455.299164 387.741760,454.856171 389.994263,454.355377 
z"/>
<path fill="#AD49FE" opacity="1.000000" stroke="none" 
	d="
M406.108765,816.448486 
	C407.019226,814.728882 407.810760,812.981262 409.157745,811.983887 
	C438.871582,789.983765 468.642426,768.060547 498.413239,746.137390 
	C507.224915,739.648438 516.029358,733.147766 524.940918,726.798096 
	C526.338867,725.802002 528.291565,725.584351 530.361694,725.390015 
	C529.483704,731.796021 528.255737,737.823914 526.975525,743.840637 
	C523.346497,760.896301 519.696167,777.947510 516.054260,795.000488 
	C510.354767,798.562561 504.411530,801.791138 498.998749,805.745789 
	C477.832581,821.209839 456.864868,836.945435 435.720215,852.439331 
	C433.843506,853.814514 431.219757,854.170166 428.554657,854.999695 
	C422.795868,845.787964 417.400665,836.590027 412.067566,827.356262 
	C410.054047,823.870117 408.183960,820.301147 406.108765,816.448486 
z"/>
<path fill="#7B87FF" opacity="1.000000" stroke="none" 
	d="
M367.921173,420.999084 
	C366.187073,421.916290 364.304016,422.630859 362.740601,423.780243 
	C320.638947,454.733215 278.570038,485.730774 236.192490,516.884033 
	C232.253372,510.991302 228.621048,504.933258 224.980057,498.880371 
	C222.733887,495.146301 220.474579,491.420074 218.194550,487.342072 
	C225.693909,481.904846 233.392181,477.051178 240.717224,471.687805 
	C280.600159,442.485565 320.377625,413.139343 360.240540,383.909698 
	C363.273560,381.685760 366.688049,379.981964 370.338715,378.436249 
	C369.808533,392.890411 368.864868,406.944763 367.921173,420.999084 
z"/>
<path fill="#837EFD" opacity="1.000000" stroke="none" 
	d="
M837.596558,141.102997 
	C836.945435,143.039032 836.343811,145.519196 834.768555,146.694382 
	C807.250305,167.224335 779.618408,187.602020 751.999207,207.996582 
	C734.787170,220.706268 717.569641,233.408798 700.312317,246.056824 
	C698.321045,247.516251 696.057983,248.604950 693.486938,249.525223 
	C693.414062,246.899658 693.578491,244.562103 694.169678,242.337952 
	C697.198059,230.943909 700.249512,219.554443 703.466431,208.212585 
	C705.659180,200.481537 708.136963,192.831329 710.487244,185.144989 
	C712.773499,177.830414 715.059814,170.515854 717.671265,163.018799 
	C729.826538,160.822662 741.666260,158.864182 753.483948,156.780243 
	C765.956360,154.580872 778.413086,152.291077 790.866577,149.986511 
	C802.200623,147.889099 813.524597,145.736557 824.845947,143.571396 
	C828.972046,142.782288 833.077820,141.886734 837.596558,141.102997 
z"/>
<path fill="#FFDF42" opacity="1.000000" stroke="none" 
	d="
M751.897217,44.604027 
	C738.179749,46.842083 724.531738,48.610336 710.907288,50.544716 
	C691.529053,53.296024 672.169006,56.175621 652.799500,58.988796 
	C635.564026,61.492031 618.326477,63.980816 601.089478,66.473518 
	C581.390686,69.322235 561.691772,72.170982 541.992249,75.014694 
	C522.947205,77.763931 503.896606,80.475761 484.856812,83.260971 
	C465.163055,86.141861 445.475464,89.065575 425.792572,92.019928 
	C413.166260,93.915115 400.553375,95.899620 387.549622,97.918427 
	C387.441742,93.607094 387.718689,89.221413 388.483154,84.394333 
	C404.386902,81.638214 419.796936,79.281105 435.220978,77.019432 
	C454.749420,74.155914 474.292542,71.392876 493.823181,68.544189 
	C513.190247,65.719353 532.548218,62.832500 551.912720,59.990269 
	C571.276917,57.148083 590.644348,54.328171 610.010132,51.497177 
	C627.078430,49.002052 644.144409,46.490704 661.215149,44.012787 
	C680.747864,41.177502 700.274475,38.297363 719.823608,35.579697 
	C731.807495,33.913746 743.828613,32.516140 755.833008,30.998037 
	C754.547791,35.401497 753.262512,39.804951 751.897217,44.604027 
z"/>
<path fill="#4BC5FF" opacity="1.000000" stroke="none" 
	d="
M134.573456,128.094299 
	C132.693909,130.633820 130.698761,133.514069 128.037994,135.504532 
	C102.520538,154.593597 76.890709,173.532455 51.122429,192.811249 
	C43.950527,180.951553 37.085690,168.713425 29.888258,156.674118 
	C26.488432,150.987152 23.959740,145.320816 23.903976,138.469421 
	C23.809053,126.806999 35.155201,112.736755 48.572231,114.064522 
	C58.779663,115.074646 68.967216,116.450546 79.089432,118.114845 
	C91.561310,120.165489 103.950912,122.713188 116.386688,124.988045 
	C122.294777,126.068787 128.227478,127.015015 134.573456,128.094299 
z"/>
<path fill="#FFE45E" opacity="1.000000" stroke="none" 
	d="
M402.028198,71.156876 
	C415.239838,68.675446 428.463165,66.254456 441.659943,63.696419 
	C456.273254,60.863823 470.862488,57.907074 485.461761,55.002308 
	C506.729553,50.770748 527.990356,46.503876 549.266663,42.315628 
	C565.305176,39.158451 581.372131,36.146034 597.410400,32.987579 
	C617.090881,29.111855 636.747925,25.117548 656.427612,21.237768 
	C672.300049,18.108562 688.195740,15.096934 704.072388,11.988985 
	C717.250122,9.409361 730.408691,6.731449 743.588562,4.163016 
	C751.121826,2.694962 761.867493,9.610717 757.585205,21.625717 
	C751.542969,22.659973 746.105530,23.236387 740.695679,24.007061 
	C721.170349,26.788597 701.653015,29.626553 682.135132,32.460453 
	C664.913757,34.960911 647.696045,37.487499 630.475952,39.996902 
	C610.959900,42.840893 591.440002,45.658688 571.927124,48.524380 
	C550.608826,51.655216 529.301697,54.862408 507.980316,57.972054 
	C488.464050,60.818439 468.934814,63.576344 449.412048,66.378448 
	C434.652985,68.496811 419.900024,70.660080 405.125031,72.660667 
	C404.178009,72.788895 403.064331,71.686691 402.028198,71.156876 
z"/>
<path fill="#FFE251" opacity="1.000000" stroke="none" 
	d="
M401.645630,71.188126 
	C403.064331,71.686691 404.178009,72.788895 405.125031,72.660667 
	C419.900024,70.660080 434.652985,68.496811 449.412048,66.378448 
	C468.934814,63.576344 488.464050,60.818439 507.980316,57.972054 
	C529.301697,54.862408 550.608826,51.655216 571.927124,48.524380 
	C591.440002,45.658688 610.959900,42.840893 630.475952,39.996902 
	C647.696045,37.487499 664.913757,34.960911 682.135132,32.460453 
	C701.653015,29.626553 721.170349,26.788597 740.695679,24.007061 
	C746.105530,23.236387 751.542969,22.659973 757.399536,21.992874 
	C757.214111,24.731979 756.597046,27.472639 755.906494,30.605667 
	C743.828613,32.516140 731.807495,33.913746 719.823608,35.579697 
	C700.274475,38.297363 680.747864,41.177502 661.215149,44.012787 
	C644.144409,46.490704 627.078430,49.002052 610.010132,51.497177 
	C590.644348,54.328171 571.276917,57.148083 551.912720,59.990269 
	C532.548218,62.832500 513.190247,65.719353 493.823181,68.544189 
	C474.292542,71.392876 454.749420,74.155914 435.220978,77.019432 
	C419.796936,79.281105 404.386902,81.638214 388.568726,83.975174 
	C388.104736,78.357300 392.116730,73.506065 398.064148,72.026970 
	C399.131409,71.761543 400.196777,71.488762 401.645630,71.188126 
z"/>
<path fill="#FFCE26" opacity="1.000000" stroke="none" 
	d="
M710.011841,185.111694 
	C708.136963,192.831329 705.659180,200.481537 703.466431,208.212585 
	C700.249512,219.554443 697.198059,230.943909 694.169678,242.337952 
	C693.578491,244.562103 693.414062,246.899658 693.153809,249.592285 
	C695.273132,258.283783 700.839539,262.061737 708.903198,260.514801 
	C727.122314,257.019714 745.333069,253.480881 763.895142,249.835114 
	C778.100342,247.097809 791.944275,244.411194 805.820190,241.901718 
	C813.523865,240.508514 817.453674,242.607620 821.404297,249.864899 
	C820.990234,253.962433 821.133850,258.152374 819.594238,261.588043 
	C815.315918,271.135406 810.337891,280.369202 805.049194,289.668671 
	C801.350647,289.561584 798.183411,289.108643 795.136902,289.529541 
	C775.439026,292.250946 755.766113,295.153961 736.087646,298.015106 
	C716.736450,300.828735 697.387817,303.659576 678.039062,306.489899 
	C660.985901,308.984406 643.937195,311.509491 626.880981,313.982819 
	C607.364807,316.812897 587.835571,319.553558 568.324829,322.420349 
	C549.304932,325.215027 530.311462,328.189728 511.287872,330.958221 
	C489.476837,334.132416 467.639191,337.123322 445.824585,340.273163 
	C421.391388,343.801117 396.971069,347.417877 372.545166,350.996033 
	C372.886444,344.006897 373.227753,337.017792 373.502686,329.574768 
	C374.611816,310.379272 375.787323,291.637604 376.903564,272.447937 
	C377.230591,264.487762 377.555725,256.971802 378.023285,249.464691 
	C378.368896,243.916275 378.900024,238.379425 379.507263,232.414291 
	C391.498840,230.478195 403.348083,229.082336 415.160797,227.425766 
	C434.534821,224.708862 453.884644,221.819199 473.245575,219.008759 
	C490.473236,216.507980 507.701691,214.013031 524.930603,211.520752 
	C544.620239,208.672516 564.315491,205.863098 583.999390,202.975677 
	C603.028992,200.184235 622.042603,197.283829 641.071655,194.488617 
	C660.591370,191.621323 680.117920,188.800400 699.649902,186.017990 
	C702.923584,185.551636 706.239868,185.384048 710.011841,185.111694 
z"/>
<path fill="#FFA902" opacity="1.000000" stroke="none" 
	d="
M516.083435,795.406738 
	C519.696167,777.947510 523.346497,760.896301 526.975525,743.840637 
	C528.255737,737.823914 529.483704,731.796021 530.732422,725.386475 
	C533.785095,710.584351 536.840759,696.168945 540.394653,681.447571 
	C541.857056,681.356506 542.864746,681.872559 543.779053,681.740723 
	C555.536682,680.044861 567.267761,678.162354 579.032349,676.518372 
	C590.628357,674.897949 602.254883,673.495361 613.867981,671.997253 
	C608.333557,683.104187 602.799133,694.211121 597.206604,705.677856 
	C588.437317,723.388428 579.717224,740.734619 571.017090,758.090881 
	C561.273254,777.529297 551.590942,796.998657 541.777283,816.401733 
	C539.834839,820.242249 537.541748,823.923096 535.193787,827.536804 
	C530.883118,834.171265 524.903748,836.236328 518.647400,833.465515 
	C512.419739,830.707397 509.730530,824.464783 511.436798,817.037598 
	C513.058777,809.977356 514.558899,802.889038 516.083435,795.406738 
z"/>
<path fill="#FFB10A" opacity="1.000000" stroke="none" 
	d="
M614.097351,671.726257 
	C602.254883,673.495361 590.628357,674.897949 579.032349,676.518372 
	C567.267761,678.162354 555.536682,680.044861 543.779053,681.740723 
	C542.864746,681.872559 541.857056,681.356506 540.526855,681.072998 
	C543.595581,663.953735 547.030212,646.903198 550.499084,629.429932 
	C552.632080,619.136963 554.863037,609.292419 556.791992,599.388977 
	C558.694031,589.623962 548.902039,582.548767 537.994995,585.809631 
	C521.629395,590.702637 505.350800,595.891724 488.940643,600.627380 
	C484.053040,602.037842 479.313660,605.330078 473.389252,603.127563 
	C465.287598,599.248962 463.501282,593.029907 465.904114,585.111328 
	C466.426788,583.388855 466.653259,581.576538 467.572479,579.405640 
	C488.294281,576.206726 508.470184,573.480103 528.622559,570.588928 
	C550.253601,567.485596 571.859558,564.206848 593.482056,561.042908 
	C615.921997,557.759521 638.353821,554.413330 660.825073,551.358215 
	C665.202698,550.762939 669.744690,551.376587 674.210876,551.432617 
	C670.995544,557.967346 667.780212,564.502136 664.554321,571.420959 
	C657.352539,585.849976 650.081421,599.854736 642.989685,613.949768 
	C633.363464,633.082031 623.874573,652.283508 614.097351,671.726257 
z"/>
<path fill="#FFC51D" opacity="1.000000" stroke="none" 
	d="
M372.410706,351.425354 
	C396.971069,347.417877 421.391388,343.801117 445.824585,340.273163 
	C467.639191,337.123322 489.476837,334.132416 511.287872,330.958221 
	C530.311462,328.189728 549.304932,325.215027 568.324829,322.420349 
	C587.835571,319.553558 607.364807,316.812897 626.880981,313.982819 
	C643.937195,311.509491 660.985901,308.984406 678.039062,306.489899 
	C697.387817,303.659576 716.736450,300.828735 736.087646,298.015106 
	C755.766113,295.153961 775.439026,292.250946 795.136902,289.529541 
	C798.183411,289.108643 801.350647,289.561584 804.773621,289.886261 
	C799.202942,301.880920 793.320679,313.599762 787.405273,325.663147 
	C774.325867,352.103729 761.279175,378.199524 748.233887,404.296051 
	C746.232605,408.299469 744.237610,412.306000 742.197021,416.656158 
	C740.955872,419.196716 739.757446,421.392181 737.904419,423.732605 
	C735.622009,423.634277 733.937805,422.989471 732.374939,423.209045 
	C713.981689,425.792969 695.604919,428.493744 677.227356,431.188599 
	C648.184509,435.447418 619.142822,439.714539 590.103638,443.998322 
	C570.416138,446.902557 550.743042,449.905701 531.045776,452.742004 
	C518.080505,454.608887 505.083832,456.257568 492.101196,458.003937 
	C492.531525,455.410400 492.790588,452.773865 493.428802,450.232544 
	C494.649811,445.370331 493.854431,441.084351 490.067108,437.211487 
	C485.987640,432.858337 481.242249,433.120331 476.411713,434.230927 
	C453.144012,439.580444 429.889557,444.987732 406.630463,450.374756 
	C401.301117,451.609070 395.972015,452.844391 390.318542,454.217285 
	C387.741760,454.856171 385.474548,455.299164 383.239380,455.867950 
	C374.721161,458.035645 366.918610,452.167877 367.020844,443.309479 
	C367.103241,436.174561 367.690643,429.045502 367.987549,421.456482 
	C368.864868,406.944763 369.808533,392.890411 370.686432,378.417206 
	C371.172516,369.283783 371.724426,360.569214 372.410706,351.425354 
z"/>
<path fill="#FFBA13" opacity="1.000000" stroke="none" 
	d="
M491.923035,458.349792 
	C505.083832,456.257568 518.080505,454.608887 531.045776,452.742004 
	C550.743042,449.905701 570.416138,446.902557 590.103638,443.998322 
	C619.142822,439.714539 648.184509,435.447418 677.227356,431.188599 
	C695.604919,428.493744 713.981689,425.792969 732.374939,423.209045 
	C733.937805,422.989471 735.622009,423.634277 737.643738,423.946045 
	C728.201904,443.871368 718.365051,463.727570 708.532593,483.585938 
	C707.652161,485.364136 706.800964,487.156769 705.877930,489.282104 
	C696.653625,507.690918 687.485962,525.759583 678.323303,543.830688 
	C677.119568,546.204712 675.941284,548.591553 674.481079,551.202515 
	C669.744690,551.376587 665.202698,550.762939 660.825073,551.358215 
	C638.353821,554.413330 615.921997,557.759521 593.482056,561.042908 
	C571.859558,564.206848 550.253601,567.485596 528.622559,570.588928 
	C508.470184,573.480103 488.294281,576.206726 467.699066,579.006042 
	C469.427032,568.264160 471.584717,557.521973 473.739563,546.389221 
	C477.244720,528.195435 480.748718,510.391418 484.277557,492.592316 
	C484.399445,491.977570 484.769928,491.412140 485.003296,490.412445 
	C487.236328,479.566010 489.490570,469.130798 491.923035,458.349792 
z"/>
</svg>