<?xml version="1.0" encoding="UTF-8"?>
<!DOCTYPE svg PUBLIC "-//W3C//DTD SVG 1.1//EN" "http://www.w3.org/Graphics/SVG/1.1/DTD/svg11.dtd">
<svg xmlns="http://www.w3.org/2000/svg" version="1.1" width="460px" height="460px" style="shape-rendering:geometricPrecision; text-rendering:geometricPrecision; image-rendering:optimizeQuality; fill-rule:evenodd; clip-rule:evenodd" xmlns:xlink="http://www.w3.org/1999/xlink">
<g><path style="opacity:0.975" fill="#fefefe" d="M 206.5,83.5 C 230.845,81.9987 251.512,89.8321 268.5,107C 297.723,103.04 322.223,111.874 342,133.5C 358.073,154.144 362.573,177.144 355.5,202.5C 376.583,230.513 379.083,260.18 363,291.5C 351.621,308.863 335.788,320.03 315.5,325C 300.738,361.226 273.738,377.892 234.5,375C 217.434,372.302 203.101,364.636 191.5,352C 151.82,356.748 123.32,341.248 106,305.5C 100.292,289.169 100.125,272.836 105.5,256.5C 86.9964,234.776 81.8297,210.11 90,182.5C 99.7049,157.459 117.538,141.626 143.5,135C 155.078,106.25 176.078,89.0837 206.5,83.5 Z M 209.5,102.5 C 224.441,101.759 237.775,105.926 249.5,115C 228.584,127.374 207.75,139.874 187,152.5C 185.849,181.42 185.015,210.42 184.5,239.5C 176.089,235.213 167.922,230.546 160,225.5C 159.065,199.135 159.399,172.802 161,146.5C 167.8,121.373 183.967,106.706 209.5,102.5 Z M 278.5,125.5 C 311.476,125.002 331.642,140.668 339,172.5C 339.499,177.823 339.666,183.156 339.5,188.5C 335.638,187.572 331.971,186.072 328.5,184C 310.949,173.057 292.949,162.891 274.5,153.5C 272.058,154.036 269.725,154.869 267.5,156C 244.702,168.901 222.035,182.067 199.5,195.5C 198.182,185.606 198.182,175.773 199.5,166C 219.996,154.586 240.33,142.919 260.5,131C 266.423,128.525 272.423,126.692 278.5,125.5 Z M 139.5,155.5 C 140.029,180.059 140.862,204.726 142,229.5C 145.222,232.388 148.722,234.888 152.5,237C 173.33,248.58 193.996,260.414 214.5,272.5C 215.833,273.5 215.833,274.5 214.5,275.5C 207.627,279.534 200.627,283.367 193.5,287C 192.167,287.667 190.833,287.667 189.5,287C 168.167,274.667 146.833,262.333 125.5,250C 106.908,233.215 101.075,212.715 108,188.5C 114.322,173.349 124.822,162.349 139.5,155.5 Z M 266.5,171.5 C 268.655,171.372 270.655,171.872 272.5,173C 291.336,184.253 310.336,195.253 329.5,206C 352.759,223.157 359.925,245.657 351,273.5C 344.912,287.921 334.579,297.921 320,303.5C 319.667,279.833 319.333,256.167 319,232.5C 318.214,229.417 316.381,227.251 313.5,226C 290.553,212.946 267.72,199.779 245,186.5C 244.383,185.551 244.549,184.718 245.5,184C 252.894,180.311 259.894,176.144 266.5,171.5 Z M 228.5,193.5 C 239.767,198.554 250.601,204.554 261,211.5C 261.667,223.833 261.667,236.167 261,248.5C 250.463,253.87 240.296,259.87 230.5,266.5C 220.129,260.3 209.629,254.3 199,248.5C 198.167,235.82 198.334,223.154 199.5,210.5C 209.394,205.059 219.061,199.392 228.5,193.5 Z M 275.5,219.5 C 283.558,224.281 291.725,228.948 300,233.5C 300.667,257.167 300.667,280.833 300,304.5C 295.684,336.315 277.518,353.649 245.5,356.5C 232.381,356.184 220.714,352.017 210.5,344C 229.971,332.428 249.638,321.094 269.5,310C 271,308.5 272.5,307 274,305.5C 274.175,276.761 274.675,248.095 275.5,219.5 Z M 258.5,264.5 C 259.5,264.5 260.5,264.5 261.5,264.5C 261.818,274.083 261.485,283.583 260.5,293C 239.663,305.253 218.663,317.253 197.5,329C 173.587,337.982 152.42,333.482 134,315.5C 123.481,302.446 118.981,287.446 120.5,270.5C 125.921,272.709 131.255,275.209 136.5,278C 151.167,286.667 165.833,295.333 180.5,304C 182.199,304.958 184.033,305.458 186,305.5C 190.282,304.113 194.449,302.28 198.5,300C 218.76,288.379 238.76,276.546 258.5,264.5 Z"/></g>
</svg>
